<svg height="30" viewBox="0 0 30 30" width="30" xmlns="http://www.w3.org/2000/svg"><g fill="#1f1f1f"><path d="m0 15a15 15 0 0 0 28.259 7l-2.146-1.3a12.508 12.508 0 1 1 -2.3-14.535l-2.473 2.47 8.66 1.844-1.918-8.585-2.508 2.506a14.97 14.97 0 0 0 -25.574 10.6z"/><path d="m412.415 517.251v-7.221a5.249 5.249 0 0 1 -2.145.977v-1.913a6.46 6.46 0 0 0 2.511-1.344h1.619v9.5z" transform="translate(-401.948 -497.451)"/><path d="m678 507.209c0-2.932 1.52-4.86 3.95-4.86s3.977 1.927 3.977 4.86-1.535 4.859-3.978 4.859-3.949-1.927-3.949-4.859zm5.782 0c0-1.927-.651-3.027-1.832-3.027s-1.805 1.1-1.805 3.027.625 3.013 1.805 3.013 1.831-1.085 1.831-3.013z" transform="translate(-664.248 -492.161)"/></g></svg>