<svg id="MENU_ICON" data-name="MENU ICON" xmlns="http://www.w3.org/2000/svg" width="27.467" height="19.227" viewBox="0 0 27.467 19.227">
  <path id="Path_3" data-name="Path 3" d="M29.093,18.56H4.373C3.615,18.56,3,18.1,3,17.53s.615-1.03,1.373-1.03h24.72c.758,0,1.373.461,1.373,1.03S29.852,18.56,29.093,18.56Z" transform="translate(-3 -7.917)" fill="#1f1f1f"/>
  <path id="Path_4" data-name="Path 4" d="M29.093,9.56H4.373C3.615,9.56,3,9.1,3,8.53S3.615,7.5,4.373,7.5h24.72c.758,0,1.373.461,1.373,1.03S29.852,9.56,29.093,9.56Z" transform="translate(-3 -7.5)" fill="#1f1f1f"/>
  <path id="Path_5" data-name="Path 5" d="M29.093,27.56H4.373C3.615,27.56,3,27.1,3,26.53s.615-1.03,1.373-1.03h24.72c.758,0,1.373.461,1.373,1.03S29.852,27.56,29.093,27.56Z" transform="translate(-3 -8.333)" fill="#1f1f1f"/>
</svg>
