<svg xmlns="http://www.w3.org/2000/svg" width="31.906" height="23.429" viewBox="0 0 31.906 23.429">
  <g id="VOLUME_ICON" data-name="VOLUME ICON" transform="translate(-2220.5 -2598.208)">
    <path id="Path_1" data-name="Path 1" d="M16,6a1.5,1.5,0,0,1,1.5,1.5V27.726A1.5,1.5,0,0,1,15.066,28.9l-6.813-5.45H3a1.5,1.5,0,0,1-1.5-1.5V13.279a1.5,1.5,0,0,1,1.5-1.5H8.253l6.813-5.45A1.5,1.5,0,0,1,16,6ZM14.5,24.605V10.621L9.716,14.45a1.5,1.5,0,0,1-.937.329H4.5v5.668H8.779a1.5,1.5,0,0,1,.937.329Z" transform="translate(2219 2592.316)" fill="#1f1f1f"/>
    <path id="Path_2" data-name="Path 2" d="M23.31,24.209a1.5,1.5,0,0,1-1.061-2.56,5.731,5.731,0,0,0,0-8.093,1.5,1.5,0,1,1,2.122-2.121,8.734,8.734,0,0,1,0,12.335A1.5,1.5,0,0,1,23.31,24.209Z" transform="translate(2218.252 2592.32)" fill="#1f1f1f"/>
    <g id="VOLUME_ICON-2" data-name="VOLUME ICON" transform="translate(2222.011 2599.708)">
      <path id="Path_2-2" data-name="Path 2" d="M28.41,29.324a1.5,1.5,0,0,1-1.061-2.561,12.811,12.811,0,0,0,3.791-9.12,13.089,13.089,0,0,0-3.791-9.187,1.5,1.5,0,0,1,2.122-2.121A16.032,16.032,0,0,1,34.14,17.579,15.132,15.132,0,0,1,33.033,23.5a16.035,16.035,0,0,1-3.562,5.388A1.5,1.5,0,0,1,28.41,29.324Z" transform="translate(-3.748 -7.395)" fill="#1f1f1f"/>
    </g>
  </g>
</svg>
